<?xml version="1.0" encoding="UTF-8"?>
<svg version="1.1" xmlns="http://www.w3.org/2000/svg" width="100" height="100">
<path d="M0 0 C33 0 66 0 100 0 C100 33 100 66 100 100 C67 100 34 100 0 100 C0 67 0 34 0 0 Z " fill="#000000" transform="translate(0,0)"/>
<path d="M0 0 C8.91 0 17.82 0 27 0 C27 8.58 27 17.16 27 26 C24.36 26 21.72 26 19 26 C19 20.06 19 14.12 19 8 C15.37 8 11.74 8 8 8 C8 29.12 8 50.24 8 72 C11.63 72 15.26 72 19 72 C19 59.13 19 46.26 19 33 C26.26 33 33.52 33 41 33 C41 22.11 41 11.22 41 0 C51.23 0 61.46 0 72 0 C72 26.4 72 52.8 72 80 C61.77 80 51.54 80 41 80 C41 69.77 41 59.54 41 49 C43.64 49 46.28 49 49 49 C49 56.59 49 64.18 49 72 C53.95 72 58.9 72 64 72 C64 50.88 64 29.76 64 8 C59.05 8 54.1 8 49 8 C49 18.89 49 29.78 49 41 C41.74 41 34.48 41 27 41 C27 53.87 27 66.74 27 80 C18.09 80 9.18 80 0 80 C0 53.6 0 27.2 0 0 Z " fill="#F6F6F6" transform="translate(14,10)"/>
</svg>
